<svg xmlns="http://www.w3.org/2000/svg" viewBox="0 0 24 24" fill="none">
  <rect width="24" height="24" rx="12" fill="#2563EB"/>
  <path d="M7 18H17C18.1046 18 19 17.1046 19 16V8C19 6.89543 18.1046 6 17 6H7C5.89543 6 5 6.89543 5 8V16C5 17.1046 5.89543 18 7 18Z" stroke="white" stroke-width="1.5"/>
  <path d="M12 14C13.1046 14 14 13.1046 14 12C14 10.8954 13.1046 10 12 10C10.8954 10 10 10.8954 10 12C10 13.1046 10.8954 14 12 14Z" stroke="white" stroke-width="1.5"/>
  <path d="M8 6V18" stroke="white" stroke-width="1.5"/>
  <path d="M16 6V18" stroke="white" stroke-width="1.5"/>
</svg> 